<svg xmlns="http://www.w3.org/2000/svg" viewBox="0 0 32 32" fill="none">
  <rect width="32" height="32" rx="8" fill="#0a0a12"/>
  <path d="M8 22V10h4.2c2.4 0 4 1.4 4 3.5 0 1.5-.8 2.6-2.1 3.1L17 22h-2.8l-2.6-4.6H10.2V22H8zm2.2-6.6h1.9c1.1 0 1.8-.6 1.8-1.6 0-1-.7-1.6-1.8-1.6h-1.9v3.2zM18.5 22l3.5-12h2.8l3.5 12h-2.6l-.7-2.4h-3.7l-.7 2.4h-2.1zm4.3-4.6l-1.2-4.1-1.2 4.1h2.4z" fill="url(#g)"/>
  <defs>
    <linearGradient id="g" x1="8" y1="10" x2="28" y2="22" gradientUnits="userSpaceOnUse">
      <stop stop-color="#60a5fa"/>
      <stop offset="1" stop-color="#a78bfa"/>
    </linearGradient>
  </defs>
</svg>
